<?xml version="1.0" encoding="UTF-8" standalone="no"?>
<!-- Created with Inkscape (http://www.inkscape.org/) -->

<svg
   xmlns:dc="http://purl.org/dc/elements/1.1/"
   xmlns:cc="http://creativecommons.org/ns#"
   xmlns:rdf="http://www.w3.org/1999/02/22-rdf-syntax-ns#"
   xmlns:svg="http://www.w3.org/2000/svg"
   xmlns="http://www.w3.org/2000/svg"
   xmlns:sodipodi="http://sodipodi.sourceforge.net/DTD/sodipodi-0.dtd"
   xmlns:inkscape="http://www.inkscape.org/namespaces/inkscape"
   width="64"
   height="64"
   id="svg11527"
   version="1.1"
   inkscape:version="0.48.2 r9819"
   sodipodi:docname="database.svg">
  <defs
     id="defs11529" />
  <sodipodi:namedview
     id="base"
     pagecolor="#ffffff"
     bordercolor="#666666"
     borderopacity="1.0"
     inkscape:pageopacity="0.0"
     inkscape:pageshadow="2"
     inkscape:zoom="8"
     inkscape:cx="35.053479"
     inkscape:cy="33.504494"
     inkscape:document-units="px"
     inkscape:current-layer="layer1"
     showgrid="false"
     inkscape:window-width="1366"
     inkscape:window-height="706"
     inkscape:window-x="-5"
     inkscape:window-y="-5"
     inkscape:window-maximized="1">
    <inkscape:grid
       type="xygrid"
       id="grid11535"
       empspacing="8"
       visible="true"
       enabled="true"
       snapvisiblegridlinesonly="true" />
  </sodipodi:namedview>
  <metadata
     id="metadata11532">
    <rdf:RDF>
      <cc:Work
         rdf:about="">
        <dc:format>image/svg+xml</dc:format>
        <dc:type
           rdf:resource="http://purl.org/dc/dcmitype/StillImage" />
        <dc:title></dc:title>
      </cc:Work>
    </rdf:RDF>
  </metadata>
  <g
     inkscape:label="Layer 1"
     inkscape:groupmode="layer"
     id="layer1"
     transform="translate(0,-988.36218)">
    <rect
       style="fill:#333333;fill-opacity:1;stroke:none"
       id="rect11612"
       width="42"
       height="41.999996"
       x="11"
       y="999.36218" />
    <g
       id="g11673">
      <path
         transform="matrix(1,0,0,1.1111111,0,989.69551)"
         d="m 53,10.5 a 21,4.5 0 1 1 -42,0 21,4.5 0 1 1 42,0 z"
         sodipodi:ry="4.5"
         sodipodi:rx="21"
         sodipodi:cy="10.5"
         sodipodi:cx="32"
         id="path11618"
         style="fill:#ffffff;fill-opacity:1;stroke:none"
         sodipodi:type="arc" />
      <path
         transform="matrix(1,0,0,1.1111111,0,987.69551)"
         d="m 53,10.5 a 21,4.5 0 1 1 -42,0 21,4.5 0 1 1 42,0 z"
         sodipodi:ry="4.5"
         sodipodi:rx="21"
         sodipodi:cy="10.5"
         sodipodi:cx="32"
         id="path11606"
         style="fill:#333333;fill-opacity:1;stroke:none"
         sodipodi:type="arc" />
    </g>
    <path
       transform="matrix(1,0,0,1.1111111,0,1011.6955)"
       d="m 53,10.5 a 21,4.5 0 1 1 -42,0 21,4.5 0 1 1 42,0 z"
       sodipodi:ry="4.5"
       sodipodi:rx="21"
       sodipodi:cy="10.5"
       sodipodi:cx="32"
       id="path11622"
       style="fill:#333333;fill-opacity:1;stroke:none"
       sodipodi:type="arc" />
    <path
       transform="matrix(1,0,0,1.1111111,0,1029.6955)"
       d="m 53,10.5 a 21,4.5 0 1 1 -42,0 21,4.5 0 1 1 42,0 z"
       sodipodi:ry="4.5"
       sodipodi:rx="21"
       sodipodi:cy="10.5"
       sodipodi:cx="32"
       id="path11630"
       style="fill:#333333;fill-opacity:1;stroke:none"
       sodipodi:type="arc" />
    <g
       id="g11648"
       transform="translate(0,15.999998)">
      <path
         transform="matrix(1,0,0,1.1111111,0,1001.6955)"
         d="m 53,10.5 a 21,4.5 0 1 1 -42,0 21,4.5 0 1 1 42,0 z"
         sodipodi:ry="4.5"
         sodipodi:rx="21"
         sodipodi:cy="10.5"
         sodipodi:cx="32"
         id="path11650"
         style="fill:#ffffff;fill-opacity:1;stroke:none"
         sodipodi:type="arc" />
      <path
         sodipodi:type="arc"
         style="fill:#333333;fill-opacity:1;stroke:none"
         id="path11652"
         sodipodi:cx="32"
         sodipodi:cy="10.5"
         sodipodi:rx="21"
         sodipodi:ry="4.5"
         d="M 53,10.5 C 53,12.985281 43.59798,15 32,15 20.40202,15 11,12.985281 11,10.5 11,8.0147186 20.40202,6 32,6 43.59798,6 53,8.0147186 53,10.5 z"
         transform="matrix(1,0,0,1.1111111,0,999.69551)" />
    </g>
    <g
       id="g11632"
       transform="translate(0,2.0000052)">
      <path
         sodipodi:type="arc"
         style="fill:#ffffff;fill-opacity:1;stroke:none"
         id="path11614"
         sodipodi:cx="32"
         sodipodi:cy="10.5"
         sodipodi:rx="21"
         sodipodi:ry="4.5"
         d="m 53,10.5 a 21,4.5 0 1 1 -42,0 21,4.5 0 1 1 42,0 z"
         transform="matrix(1,0,0,1.1111111,0,1001.6955)" />
      <path
         transform="matrix(1,0,0,1.1111111,0,999.69551)"
         d="M 53,10.5 C 53,12.985281 43.59798,15 32,15 20.40202,15 11,12.985281 11,10.5 11,8.0147186 20.40202,6 32,6 43.59798,6 53,8.0147186 53,10.5 z"
         sodipodi:ry="4.5"
         sodipodi:rx="21"
         sodipodi:cy="10.5"
         sodipodi:cx="32"
         id="path11616"
         style="fill:#333333;fill-opacity:1;stroke:none"
         sodipodi:type="arc" />
    </g>
  </g>
</svg>
