<?xml version="1.0" encoding="UTF-8" standalone="no"?>
<!-- Created with Inkscape (http://www.inkscape.org/) -->

<svg
   xmlns:dc="http://purl.org/dc/elements/1.1/"
   xmlns:cc="http://creativecommons.org/ns#"
   xmlns:rdf="http://www.w3.org/1999/02/22-rdf-syntax-ns#"
   xmlns:svg="http://www.w3.org/2000/svg"
   xmlns="http://www.w3.org/2000/svg"
   xmlns:sodipodi="http://sodipodi.sourceforge.net/DTD/sodipodi-0.dtd"
   xmlns:inkscape="http://www.inkscape.org/namespaces/inkscape"
   width="64"
   height="64"
   id="svg11527"
   version="1.1"
   inkscape:version="0.48.2 r9819"
   sodipodi:docname="database.svg">
  <defs
     id="defs11529" />
  <sodipodi:namedview
     id="base"
     pagecolor="#ffffff"
     bordercolor="#666666"
     borderopacity="1.0"
     inkscape:pageopacity="0.0"
     inkscape:pageshadow="2"
     inkscape:zoom="1"
     inkscape:cx="34.188374"
     inkscape:cy="22.56293"
     inkscape:document-units="px"
     inkscape:current-layer="layer1"
     showgrid="false"
     inkscape:window-width="1366"
     inkscape:window-height="706"
     inkscape:window-x="-5"
     inkscape:window-y="-5"
     inkscape:window-maximized="1">
    <inkscape:grid
       type="xygrid"
       id="grid11535"
       empspacing="8"
       visible="true"
       enabled="true"
       snapvisiblegridlinesonly="true" />
  </sodipodi:namedview>
  <metadata
     id="metadata11532">
    <rdf:RDF>
      <cc:Work
         rdf:about="">
        <dc:format>image/svg+xml</dc:format>
        <dc:type
           rdf:resource="http://purl.org/dc/dcmitype/StillImage" />
        <dc:title />
      </cc:Work>
    </rdf:RDF>
  </metadata>
  <g
     inkscape:label="Layer 1"
     inkscape:groupmode="layer"
     id="layer1"
     transform="translate(0,-988.36218)">
    <path
       style="fill:#333333;fill-opacity:1;stroke:none"
       d="M 32 6 C 20.40202 6 11 8.2385763 11 11 L 11 13 C 11 12.654822 11.157761 12.325488 11.4375 12 C 13.395672 14.278416 21.851768 16 32 16 C 42.148232 16 50.604328 14.278416 52.5625 12 C 52.842239 12.325488 53 12.654822 53 13 L 53 11 C 53 8.2385763 43.59798 6 32 6 z M 53 13 C 53 15.761424 43.59798 18 32 18 C 20.40202 18 11 15.761424 11 13 L 11 27 C 11 26.654822 11.157761 26.325488 11.4375 26 C 13.395672 28.278416 21.851768 30 32 30 C 42.148232 30 50.604328 28.278416 52.5625 26 C 52.842239 26.325488 53 26.654822 53 27 L 53 13 z M 53 27 C 53 29.761424 43.59798 32 32 32 C 20.40202 32 11 29.761424 11 27 L 11 41 C 11 40.654822 11.157761 40.325488 11.4375 40 C 13.395672 42.278416 21.851768 44 32 44 C 42.148232 44 50.604328 42.278416 52.5625 40 C 52.842239 40.325488 53 40.654822 53 41 L 53 27 z M 53 41 C 53 43.761424 43.59798 46 32 46 C 20.40202 46 11 43.761424 11 41 L 11 53 C 11 55.761424 20.40202 58 32 58 C 43.59798 58 53 55.761424 53 53 L 53 41 z "
       transform="translate(0,988.36218)"
       id="rect11612" />
  </g>
</svg>
