<?xml version="1.0" encoding="UTF-8" standalone="no"?>
<!-- Created with Inkscape (http://www.inkscape.org/) -->

<svg
   xmlns:dc="http://purl.org/dc/elements/1.1/"
   xmlns:cc="http://creativecommons.org/ns#"
   xmlns:rdf="http://www.w3.org/1999/02/22-rdf-syntax-ns#"
   xmlns:svg="http://www.w3.org/2000/svg"
   xmlns="http://www.w3.org/2000/svg"
   xmlns:sodipodi="http://sodipodi.sourceforge.net/DTD/sodipodi-0.dtd"
   xmlns:inkscape="http://www.inkscape.org/namespaces/inkscape"
   width="64"
   height="64"
   id="svg11527"
   version="1.1"
   inkscape:version="0.48.2 r9819"
   sodipodi:docname="server.svg">
  <defs
     id="defs11529" />
  <sodipodi:namedview
     id="base"
     pagecolor="#ffffff"
     bordercolor="#666666"
     borderopacity="1.0"
     inkscape:pageopacity="0.0"
     inkscape:pageshadow="2"
     inkscape:zoom="1"
     inkscape:cx="43.85597"
     inkscape:cy="37.960804"
     inkscape:document-units="px"
     inkscape:current-layer="layer1"
     showgrid="false"
     inkscape:window-width="1366"
     inkscape:window-height="706"
     inkscape:window-x="-5"
     inkscape:window-y="-5"
     inkscape:window-maximized="1">
    <inkscape:grid
       type="xygrid"
       id="grid11535"
       empspacing="4"
       visible="true"
       enabled="true"
       snapvisiblegridlinesonly="true" />
  </sodipodi:namedview>
  <metadata
     id="metadata11532">
    <rdf:RDF>
      <cc:Work
         rdf:about="">
        <dc:format>image/svg+xml</dc:format>
        <dc:type
           rdf:resource="http://purl.org/dc/dcmitype/StillImage" />
        <dc:title />
      </cc:Work>
    </rdf:RDF>
  </metadata>
  <g
     inkscape:label="Layer 1"
     inkscape:groupmode="layer"
     id="layer1"
     transform="translate(0,-988.36218)">
    <path
       style="fill:#333333;fill-opacity:1;stroke:none;display:inline"
       d="M 13 6 C 11.892 6 11 6.8920001 11 8 L 11 56 C 11 57.108 11.892 58 13 58 L 51 58 C 52.108 58 53 57.108 53 56 L 53 8 C 53 6.8920001 52.108 6 51 6 L 13 6 z M 17 11 L 47 11 C 47.554 11 48 11.446 48 12 L 48 13 C 48 13.554 47.554 14 47 14 L 17 14 C 16.446 14 16 13.554 16 13 L 16 12 C 16 11.446 16.446 11 17 11 z M 17 17 L 47 17 C 47.554 17 48 17.446 48 18 L 48 19 C 48 19.554 47.554 20 47 20 L 17 20 C 16.446 20 16 19.554 16 19 L 16 18 C 16 17.446 16.446 17 17 17 z M 17 23 L 47 23 C 47.554 23 48 23.446 48 24 L 48 25 C 48 25.554 47.554 26 47 26 L 17 26 C 16.446 26 16 25.554 16 25 L 16 24 C 16 23.446 16.446 23 17 23 z "
       transform="translate(0,988.36218)"
       id="rect11514" />
  </g>
</svg>
