<?xml version="1.0" encoding="UTF-8" standalone="no"?>
<!-- Created with Inkscape (http://www.inkscape.org/) -->

<svg
   xmlns:dc="http://purl.org/dc/elements/1.1/"
   xmlns:cc="http://creativecommons.org/ns#"
   xmlns:rdf="http://www.w3.org/1999/02/22-rdf-syntax-ns#"
   xmlns:svg="http://www.w3.org/2000/svg"
   xmlns="http://www.w3.org/2000/svg"
   xmlns:sodipodi="http://sodipodi.sourceforge.net/DTD/sodipodi-0.dtd"
   xmlns:inkscape="http://www.inkscape.org/namespaces/inkscape"
   width="744.09448819"
   height="1052.3622047"
   id="svg7646"
   version="1.1"
   inkscape:version="0.48.1 r9760"
   sodipodi:docname="New document 4">
  <defs
     id="defs7648" />
  <sodipodi:namedview
     id="base"
     pagecolor="#ffffff"
     bordercolor="#666666"
     borderopacity="1.0"
     inkscape:pageopacity="0.0"
     inkscape:pageshadow="2"
     inkscape:zoom="0.35"
     inkscape:cx="375"
     inkscape:cy="520"
     inkscape:document-units="px"
     inkscape:current-layer="layer1"
     showgrid="false"
     inkscape:window-width="474"
     inkscape:window-height="429"
     inkscape:window-x="0"
     inkscape:window-y="54"
     inkscape:window-maximized="0" />
  <metadata
     id="metadata7651">
    <rdf:RDF>
      <cc:Work
         rdf:about="">
        <dc:format>image/svg+xml</dc:format>
        <dc:type
           rdf:resource="http://purl.org/dc/dcmitype/StillImage" />
        <dc:title></dc:title>
      </cc:Work>
    </rdf:RDF>
  </metadata>
  <g
     inkscape:label="Layer 1"
     inkscape:groupmode="layer"
     id="layer1">
    <g
       style="display:inline"
       id="g7617"
       transform="translate(179.65827,-44.048446)">
      <text
         sodipodi:linespacing="125%"
         id="text4184"
         y="516.94885"
         x="192.71434"
         style="font-size:30.92648315px;font-style:normal;font-variant:normal;font-weight:normal;font-stretch:normal;line-height:125%;letter-spacing:-0.25999999px;word-spacing:0px;fill:#000000;fill-opacity:1;stroke:none;font-family:Segoe UI;-inkscape-font-specification:Segoe UI"
         xml:space="preserve"><tspan
           y="516.94885"
           x="192.71434"
           id="tspan4186"
           sodipodi:role="line">Windows <tspan
   id="tspan4190"
   style="font-style:normal;font-variant:normal;font-weight:normal;font-stretch:normal;letter-spacing:-0.25999999px;word-spacing:0px;font-family:Segoe UI;-inkscape-font-specification:Segoe UI">A</tspan>zure </tspan></text>
      <g
         style="fill:#85bbe4;fill-opacity:1"
         transform="matrix(0.38618104,0,0,0.38618104,146.10319,295.9692)"
         id="g7611">
        <path
           style="fill:#85bbe4;fill-opacity:1"
           id="path3393"
           d="m 28.812548,536.42975 c -1.547162,0.0381 -3.179166,0.19828 -4.853113,0.47568 -1.754976,0.29075 -3.615765,0.72163 -5.528031,1.27834 -1.994247,0.57864 -4.114327,1.31647 -6.297322,2.19348 l -0.01525,0.003 c -0.07436,0.0324 -0.126786,0.0934 -0.151571,0.17255 l -8.6957567,29.45995 c -0.047664,0.15633 0.039084,0.31458 0.1382246,0.40037 l 0.5814966,0.43183 c 0,0 0.010486,0.007 0.018112,0.0153 0.1401311,0.0925 0.2821688,0.0887 0.3384119,0.0801 0.00191,0 0.017159,-0.005 0.017159,-0.005 3.2573341,-1.22496 6.1600506,-2.10197 8.8759256,-2.68728 2.64724,-0.56815 5.032329,-0.83793 7.289679,-0.82744 1.889388,0.0124 3.664382,0.20876 5.428891,0.59103 1.593872,0.34985 3.143894,0.84841 4.73586,1.52714 2.232566,0.97139 4.280196,2.19539 5.81306,3.14866 l 0.0143,0.008 c 0,0 0,0.006 -9.54e-4,0.006 0.04766,0.0238 0.190655,0.0887 0.326973,0.0276 0,0 0.383216,-0.21925 0.498562,-0.28693 l 0,0 0.04004,-0.0257 c 0.07817,-0.0534 0.183029,-0.12393 0.21544,-0.25929 l 0.0057,-0.0286 c 0,0 0.0029,0.005 0.0038,0.007 0.01716,-0.0562 8.654766,-28.6878 8.654766,-28.6878 l 0.297421,-0.98473 c 0.0048,-0.0238 0.0076,-0.0524 0.0076,-0.0782 0,-0.11344 -0.04957,-0.2183 -0.132505,-0.27645 -0.0029,0 -0.0095,-0.002 -0.0095,-0.002 l -9.54e-4,-9.6e-4 c -3.683447,-2.4175 -7.847344,-4.75111 -13.335337,-5.45939 -1.376526,-0.18017 -2.816922,-0.25071 -4.281149,-0.21544 z"
           inkscape:connector-curvature="0" />
        <path
           style="fill:#85bbe4;fill-opacity:1"
           id="path3400"
           d="m 50.430875,545.15506 0,0 c -0.101047,0.004 -0.204001,0.0438 -0.361291,0.13727 0,0.004 -9.53e-4,0.005 -9.53e-4,0.005 l -0.0038,9.5e-4 -0.0019,0.004 c -0.03908,0.0267 -0.140131,0.0953 -0.254523,0.18112 -0.232599,0.17731 -0.376543,0.32126 -0.417534,0.41944 l -9.53e-4,0 c 0,0 0,0 -9.54e-4,0 -9.53e-4,0.007 -0.0086,0.0248 -0.0086,0.0248 l 0.0019,-0.008 -0.0019,0.01 0,0.004 -8.704337,29.18922 c -0.150617,0.43755 0.250711,0.67682 0.296468,0.70256 2.232566,1.44993 4.362178,2.59195 6.508949,3.48612 1.25832,0.52812 2.545239,0.9752 3.827391,1.33268 1.389873,0.39084 2.817876,0.69207 4.249692,0.89226 1.534769,0.21258 3.118156,0.31935 4.707262,0.31554 1.688247,-0.009 3.437503,-0.14014 5.195339,-0.39371 1.857929,-0.26787 3.782587,-0.67968 5.719638,-1.22591 2.036191,-0.57196 4.144831,-1.30979 6.272537,-2.18871 0.0029,0 0.01335,-0.009 0.01335,-0.009 0.0591,-0.0372 0.200187,-0.12393 0.272636,-0.26501 0,-0.003 8.500336,-28.7164 8.503196,-28.72498 0,-0.002 -0.0029,-0.006 -0.0029,-0.006 l 0,-0.004 c 0.01144,-0.0429 0.01335,-0.0839 0.01335,-0.12297 0,-0.23641 -0.151571,-0.37845 -0.153477,-0.38131 0,0.003 -0.713049,-0.54718 -0.713049,-0.54718 l 0,0 -0.0019,-0.005 c -0.04671,-0.0496 -0.171589,-0.12774 -0.475683,-0.0848 -2.180136,0.71591 -4.286869,1.30789 -6.267771,1.77214 -1.908453,0.44422 -3.758756,0.77787 -5.502292,0.98854 -3.288792,0.40514 -6.262051,0.40514 -9.092319,0 -2.490902,-0.35176 -4.847393,-1.02191 -7.201978,-2.04382 -1.90178,-0.82458 -3.839784,-1.89224 -6.099041,-3.36696 l -0.0076,-0.004 0.0029,9.5e-4 c -0.137272,-0.062 -0.224973,-0.0858 -0.309814,-0.0858 z"
           inkscape:connector-curvature="0" />
        <path
           style="fill:#85bbe4;fill-opacity:1"
           id="path3407"
           d="m 60.376373,509.60465 c -0.0019,0 -0.149664,0.1039 -0.149664,0.1039 -0.299328,0.21639 -0.476637,0.38417 -0.526207,0.49856 l -0.0019,0.004 c 0,0 0,9.5e-4 -0.0019,9.5e-4 0,0.004 -0.02955,0.0991 -0.02955,0.0991 0,0.005 -8.731982,29.25786 -8.731982,29.25786 -0.02383,0.0696 -0.03527,0.13441 -0.03527,0.19256 0,0.3203 0.296468,0.48331 0.303141,0.48426 l 0,0 0.0019,0 c 0.692076,0.44995 1.407031,0.88178 2.124845,1.28215 3.350755,2.0219 6.663379,3.36601 10.125667,4.10766 2.004733,0.43278 4.090495,0.66157 6.198182,0.68159 2.278322,0.021 4.664365,-0.20114 7.083772,-0.65776 3.590979,-0.55099 7.239156,-1.63486 10.840621,-3.21444 0,-0.002 0.0095,-0.006 0.0095,-0.006 0.06864,-0.0314 0.216393,-0.12678 0.291702,-0.26882 0,-0.006 8.880692,-29.52573 8.880692,-29.52573 0.0162,-0.0524 0.02574,-0.102 0.02574,-0.15061 0,-0.25357 -0.222113,-0.46615 -0.437552,-0.65014 -0.11916,-0.11058 -0.284076,-0.25166 -0.397515,-0.29932 -0.241178,-0.11058 -0.487123,-0.0744 -0.561478,-0.0315 -0.0019,0 -0.0067,0.006 -0.0067,0.006 l -0.0019,0.002 c -2.174416,0.86844 -4.285915,1.59578 -6.279209,2.16775 -1.906547,0.54527 -3.765429,0.96185 -5.521358,1.2383 -1.672041,0.2631 -3.306904,0.40705 -4.860739,0.42897 -1.466134,0.02 -2.90939,-0.0648 -4.292589,-0.25929 -2.482323,-0.3489 -4.858833,-1.04002 -7.258221,-2.11531 -2.38509,-1.06671 -4.522328,-2.39653 -6.120014,-3.4375 -0.274542,-0.12012 -0.394655,-0.11154 -0.672057,0.061 z"
           inkscape:connector-curvature="0" />
        <path
           style="fill:#85bbe4;fill-opacity:1;fill-rule:evenodd"
           id="path3414-6"
           d="m 32.10992,501.41984 c -3.013297,0.63202 -6.303995,1.6606 -9.783442,3.05238 l 0,9.6e-4 c -0.03051,0.0124 -0.128692,0.0505 -0.161103,0.1754 l -0.451852,1.50712 -8.37355,28.04816 c -0.0095,0.0286 -0.01335,0.062 -0.01335,0.0982 0,0.13632 0.06006,0.30505 0.129645,0.35272 0.01335,0.0105 0.0286,0.0181 0.04004,0.0248 l 0.0019,0.002 0.0572,0.0419 0.514768,0.3918 0.01525,0.009 c 0.01716,0.0133 0.03622,0.0257 0.04766,0.0334 0.105813,0.0419 0.132505,0.0419 0.16015,0.0391 l 0.0095,0 0,0 c 0,-0.002 0.0038,-0.002 0.0038,-0.002 l 0,0 c 0,0 0,-0.002 0,-0.002 l 0.01621,-0.004 c 0.07626,-0.007 0.255477,-0.0839 0.256431,-0.0858 7.627137,-2.92845 13.727132,-3.99326 19.197013,-3.34503 2.332659,0.27645 4.59001,0.87415 6.900744,1.82361 1.839817,0.75785 3.73969,1.74926 5.973209,3.12006 l 0.03146,0.0134 0.0067,0 c 0,0 0.02669,0.0133 0.02669,0.0133 l 0.0029,9.6e-4 0.0029,0 0.0076,0.005 0.0086,0.006 -0.0029,0 c 9.53e-4,0 0.176355,0.0848 0.322206,0.0477 0,-0.002 0.549085,-0.24213 0.549085,-0.24213 l 0,0 0,0 0.02574,-0.0162 c 0.0734,-0.0524 0.185888,-0.1306 0.218299,-0.26978 l 0,0 c 0,0 9.54e-4,0 9.54e-4,0 0,-9.5e-4 0,-9.5e-4 0,-9.5e-4 l 5.507058,-18.41628 2.959913,-9.89593 0.198281,-0.65395 c 0,-0.002 9.53e-4,-0.0143 9.53e-4,-0.0143 0,-9.6e-4 0.142991,-0.48045 0.142991,-0.48045 0.0038,-0.0153 0.0057,-0.0324 0.0086,-0.0505 0,-0.0124 9.53e-4,-0.0257 9.53e-4,-0.0391 0,-0.11058 -0.04671,-0.20782 -0.129645,-0.26215 -1.749256,-1.14774 -3.138175,-1.97518 -4.501356,-2.68156 l -0.09247,-0.0467 c -3.937971,-2.03142 -7.726279,-3.01806 -11.92354,-3.10386 -2.459444,-0.0496 -5.122889,0.22021 -7.912166,0.80647 z"
           clip-rule="evenodd"
           inkscape:connector-curvature="0" />
      </g>
    </g>
  </g>
</svg>
